<svg id="visual" viewBox="0 0 450 900" width="450" height="900" xmlns="http://www.w3.org/2000/svg" xmlns:xlink="http://www.w3.org/1999/xlink" version="1.1"><rect x="0" y="0" width="450" height="900" fill="#f3f3f3"></rect><defs><linearGradient id="grad1_0" x1="0%" y1="0%" x2="100%" y2="100%"><stop offset="30%" stop-color="#f3f3f3" stop-opacity="1"></stop><stop offset="70%" stop-color="#f3f3f3" stop-opacity="1"></stop></linearGradient></defs><defs><linearGradient id="grad2_0" x1="0%" y1="0%" x2="100%" y2="100%"><stop offset="30%" stop-color="#f3f3f3" stop-opacity="1"></stop><stop offset="70%" stop-color="#f3f3f3" stop-opacity="1"></stop></linearGradient></defs><g transform="translate(450, 0)"><path d="M0 135C-13.8 124.4 -27.7 113.8 -45.2 109C-62.6 104.2 -83.7 105.2 -95.5 95.5C-107.2 85.7 -109.5 65.2 -114.6 47.5C-119.6 29.7 -127.3 14.9 -135 0L0 0Z" fill="#a6ddf0"></path></g><g transform="translate(0, 900)"><path d="M0 -135C17.5 -131.9 35 -128.8 50.5 -122C66.1 -115.1 79.7 -104.6 92.6 -92.6C105.6 -80.7 117.8 -67.3 124.7 -51.7C131.7 -36 133.3 -18 135 0L0 0Z" fill="#a6ddf0"></path></g></svg>