<svg id="visual" viewBox="0 0 675 900" width="675" height="900" xmlns="http://www.w3.org/2000/svg" xmlns:xlink="http://www.w3.org/1999/xlink" version="1.1"><rect x="0" y="0" width="675" height="900" fill="#f3f3f3"></rect><defs><linearGradient id="grad1_0" x1="0%" y1="0%" x2="100%" y2="100%"><stop offset="30%" stop-color="#f3f3f3" stop-opacity="1"></stop><stop offset="70%" stop-color="#f3f3f3" stop-opacity="1"></stop></linearGradient></defs><defs><linearGradient id="grad2_0" x1="0%" y1="0%" x2="100%" y2="100%"><stop offset="30%" stop-color="#f3f3f3" stop-opacity="1"></stop><stop offset="70%" stop-color="#f3f3f3" stop-opacity="1"></stop></linearGradient></defs><g transform="translate(675, 0)"><path d="M0 253.1C-24.9 229.1 -49.7 205 -81.1 195.9C-112.6 186.7 -150.6 192.4 -178.2 178.2C-205.8 164 -223.1 129.9 -233.9 96.9C-244.6 63.9 -248.9 31.9 -253.1 0L0 0Z" fill="#a6ddf0"></path></g><g transform="translate(0, 900)"><path d="M0 -253.1C26.3 -230.2 52.5 -207.3 80.7 -194.9C109 -182.6 139.1 -180.8 166.9 -166.9C194.6 -152.9 219.9 -126.7 233.9 -96.9C247.8 -67 250.5 -33.5 253.1 0L0 0Z" fill="#a6ddf0"></path></g></svg>