<svg id="visual" viewBox="0 0 960 540" width="960" height="540" xmlns="http://www.w3.org/2000/svg" xmlns:xlink="http://www.w3.org/1999/xlink" version="1.1"><rect x="0" y="0" width="960" height="540" fill="#ffffff"></rect><defs><linearGradient id="grad1_0" x1="43.8%" y1="0%" x2="100%" y2="100%"><stop offset="14.444444444444446%" stop-color="#ffffff" stop-opacity="1"></stop><stop offset="85.55555555555554%" stop-color="#ffffff" stop-opacity="1"></stop></linearGradient></defs><defs><linearGradient id="grad2_0" x1="0%" y1="0%" x2="56.3%" y2="100%"><stop offset="14.444444444444446%" stop-color="#ffffff" stop-opacity="1"></stop><stop offset="85.55555555555554%" stop-color="#ffffff" stop-opacity="1"></stop></linearGradient></defs><g transform="translate(960, 0)"><path d="M0 270C-35.9 263.2 -71.7 256.4 -99.1 239.3C-126.5 222.1 -145.5 194.6 -171.8 171.8C-198.2 149.1 -231.9 131.2 -249.4 103.3C-267 75.5 -268.5 37.7 -270 0L0 0Z" fill="#a6ddf0"></path></g><g transform="translate(0, 540)"><path d="M0 -270C39.7 -270.5 79.4 -270.9 103.3 -249.4C127.3 -228 135.4 -184.6 158.4 -158.4C181.4 -132.2 219.1 -123 240.2 -99.5C261.3 -76 265.6 -38 270 0L0 0Z" fill="#a6ddf0"></path></g></svg>