<svg xmlns="http://www.w3.org/2000/svg" xmlns:xlink="http://www.w3.org/1999/xlink" width="1024" zoomAndPan="magnify" viewBox="0 0 768 767.999994" height="1024" preserveAspectRatio="xMidYMid meet" version="1.0"><defs><clipPath id="87ca4a8841"><path d="M 94 133.039062 L 675.523438 133.039062 L 675.523438 634.789062 L 94 634.789062 Z M 94 133.039062 " clip-rule="nonzero"/></clipPath><clipPath id="bc10680fe3"><path d="M 333 450 L 392 450 L 392 527.183594 L 333 527.183594 Z M 333 450 " clip-rule="nonzero"/></clipPath><clipPath id="cba2f24283"><path d="M 314.402344 273.683594 L 510 273.683594 L 510 505 L 314.402344 505 Z M 314.402344 273.683594 " clip-rule="nonzero"/></clipPath></defs><g clip-path="url(#87ca4a8841)"><path fill="#181819" d="M 750.828125 682.28125 C 737.390625 669.558594 728.265625 654.5625 723.660156 637.652344 C 731.207031 621.195312 735.023438 603.726562 735.023438 585.628906 L 735.023438 481.613281 C 735.023438 436.9375 711.496094 397.761719 676.257812 375.46875 L 676.257812 307.933594 C 676.257812 211.445312 597.714844 132.953125 501.167969 132.953125 L 310.183594 132.953125 C 213.632812 132.953125 135.097656 211.445312 135.097656 307.933594 L 135.097656 457.628906 C 135.097656 483.511719 140.710938 508.484375 151.796875 531.9375 C 145.085938 558.226562 131.195312 581.464844 110.472656 601.082031 L 94.066406 616.605469 L 115.414062 623.976562 C 129.34375 628.792969 144.144531 631.238281 159.40625 631.238281 C 182.796875 631.238281 207.375 625.601562 232.535156 614.46875 C 256.5625 626.347656 283.265625 632.597656 310.1875 632.597656 L 359.996094 632.597656 C 378.65625 678.699219 423.730469 711.398438 476.492188 711.398438 L 609.183594 711.398438 C 627.878906 711.398438 646.421875 707.207031 663.234375 699.226562 C 680.644531 706.6875 697.683594 710.46875 713.976562 710.46875 C 725.035156 710.46875 735.78125 708.695312 745.882812 705.199219 L 767.234375 697.820312 Z M 239.464844 587.179688 L 233.316406 583.820312 L 226.988281 586.835938 C 198.296875 600.511719 170.957031 606.019531 145.976562 603.019531 C 162.65625 582.4375 173.953125 559.0625 179.65625 533.265625 L 180.714844 528.484375 L 178.5 524.113281 C 167.898438 503.214844 162.519531 480.855469 162.519531 457.613281 L 162.519531 307.925781 C 162.519531 226.554688 228.765625 160.351562 310.183594 160.351562 L 501.167969 160.351562 C 582.589844 160.351562 648.835938 226.554688 648.835938 307.925781 L 648.835938 457.613281 C 648.835938 538.980469 582.589844 605.175781 501.167969 605.175781 L 310.183594 605.175781 C 285.5 605.175781 261.046875 598.957031 239.464844 587.179688 Z M 713.972656 683.042969 C 699.847656 683.042969 684.648438 679.199219 668.777344 671.640625 L 662.453125 668.628906 L 656.300781 671.984375 C 641.917969 679.835938 625.625 683.980469 609.175781 683.980469 L 476.484375 683.980469 C 439.238281 683.980469 406.839844 663.160156 390.144531 632.582031 L 501.167969 632.582031 C 597.714844 632.582031 676.257812 554.09375 676.257812 457.613281 L 676.257812 409.804688 C 695.515625 427.757812 707.601562 453.277344 707.601562 481.605469 L 707.601562 585.628906 C 707.601562 601.101562 704.015625 616.003906 696.941406 629.929688 L 694.722656 634.300781 L 695.777344 639.089844 C 699.3125 655.089844 705.839844 669.792969 715.253906 683.027344 C 714.828125 683.035156 714.402344 683.042969 713.972656 683.042969 Z M 713.972656 683.042969 " fill-opacity="1" fill-rule="nonzero"/></g><g clip-path="url(#bc10680fe3)"><path fill="#202020" d="M 337.457031 451.355469 C 340.445312 459.210938 343.171875 467.195312 345.621094 475.113281 C 346.863281 478.992188 348.183594 482.835938 349.585938 486.636719 C 350.910156 490.308594 352.496094 493.863281 354.339844 497.304688 C 356.128906 500.675781 358.226562 503.84375 360.632812 506.804688 C 363.054688 509.726562 365.792969 512.316406 368.839844 514.574219 C 374.855469 519.160156 382.316406 521.886719 390.441406 523.050781 C 391.675781 523.222656 391.773438 526.652344 390.375 526.777344 C 385.949219 527.207031 381.546875 527.023438 377.171875 526.234375 C 372.644531 525.390625 368.378906 523.832031 364.375 521.558594 C 360.335938 519.300781 356.71875 516.492188 353.53125 513.132812 C 350.386719 509.785156 347.726562 506.085938 345.542969 502.046875 C 343.394531 498.109375 341.671875 493.996094 340.382812 489.699219 C 339.109375 485.59375 338.074219 481.433594 337.265625 477.210938 C 335.753906 468.886719 334.578125 460.644531 333.683594 452.257812 C 333.53125 450.847656 336.980469 450.109375 337.457031 451.355469 Z M 337.457031 451.355469 " fill-opacity="1" fill-rule="nonzero"/></g><path fill="#350105" d="M 399.601562 516.683594 C 392.683594 516.683594 386.675781 515.25 381.742188 512.40625 C 376.988281 509.667969 373.066406 506.035156 369.972656 501.507812 C 367.082031 497.257812 364.820312 492.691406 363.195312 487.816406 C 361.664062 483.363281 360.332031 478.761719 359.230469 474.148438 C 352.367188 445.535156 346.34375 420.035156 341.261719 398.492188 C 336.273438 377.230469 332.074219 359.132812 328.808594 344.71875 C 325.472656 330.046875 323.054688 319.101562 321.402344 311.277344 C 319.027344 300.140625 318.734375 296.753906 318.734375 294.75 C 318.734375 291.542969 319.882812 283.660156 330.550781 280.019531 C 335.015625 278.488281 341.339844 277.777344 350.464844 277.777344 C 359.785156 277.777344 367.363281 278.726562 373.644531 280.699219 C 380.316406 282.789062 385.875 285.878906 390.164062 289.886719 C 394.472656 293.894531 397.683594 298.648438 399.792969 304.140625 C 401.648438 309.046875 402.910156 314.097656 403.582031 319.296875 C 404.207031 322.863281 404.835938 327.121094 405.460938 331.96875 C 406.054688 336.722656 407.132812 343.960938 408.632812 353.621094 C 410.171875 363.429688 412.269531 376.664062 414.925781 393.320312 C 415.933594 399.65625 417.074219 406.714844 418.359375 414.609375 C 420.886719 405.574219 423.441406 396.289062 425.945312 386.890625 C 428.957031 375.667969 432.238281 362.746094 435.71875 348.457031 C 439.199219 334.171875 443.644531 316.089844 448.941406 295.011719 C 450.597656 288.675781 452.699219 284.769531 455.789062 282.15625 C 459.207031 279.28125 463.890625 278.054688 471.460938 278.054688 C 473.757812 278.054688 477.160156 278.210938 481.84375 278.539062 C 487.304688 278.945312 492.621094 280.039062 497.792969 281.824219 C 503.449219 283.730469 508.550781 286.609375 513.101562 290.464844 C 517.136719 293.910156 521.933594 300.246094 521.933594 310.992188 C 521.933594 316.867188 520.457031 325.128906 517.421875 336.230469 C 514.613281 346.527344 511 358.292969 506.664062 371.289062 C 502.328125 384.285156 497.5 397.921875 492.261719 411.972656 C 487.023438 426.019531 481.804688 439.386719 476.628906 452.011719 C 471.453125 464.636719 466.761719 475.699219 462.542969 485.128906 C 458.191406 494.886719 454.996094 501.570312 452.777344 505.570312 C 450.3125 509.816406 444.460938 516.65625 431.851562 516.65625 Z M 399.601562 516.683594 " fill-opacity="1" fill-rule="nonzero"/><path fill="#fee156" d="M 415.566406 458.695312 C 419.871094 444.378906 423.570312 431.800781 426.664062 420.960938 C 429.761719 410.121094 432.835938 398.972656 435.886719 387.515625 C 438.957031 376.058594 442.230469 363.171875 445.707031 348.855469 C 449.183594 334.535156 453.582031 316.742188 458.90625 295.46875 C 459.925781 291.582031 461.101562 289.074219 462.441406 287.945312 C 463.773438 286.828125 466.785156 286.257812 471.5 286.257812 C 473.546875 286.257812 476.769531 286.414062 481.171875 286.726562 C 485.734375 287.074219 490.175781 288.007812 494.496094 289.523438 C 498.914062 290.996094 502.902344 293.230469 506.464844 296.230469 C 509.9375 299.203125 511.675781 303.445312 511.683594 308.964844 C 511.683594 313.875 510.300781 321.390625 507.535156 331.519531 C 504.773438 341.644531 501.246094 353.152344 496.953125 366.039062 C 492.65625 378.921875 487.902344 392.367188 482.683594 406.378906 C 477.46875 420.390625 472.296875 433.640625 467.171875 446.121094 C 462.050781 458.59375 457.394531 469.539062 453.207031 478.945312 C 449.015625 488.355469 445.894531 494.902344 443.84375 498.59375 C 441.582031 502.480469 437.589844 504.421875 431.867188 504.421875 L 399.601562 504.421875 C 394.484375 504.421875 390.234375 503.449219 386.855469 501.507812 C 383.441406 499.546875 380.625 496.941406 378.414062 493.683594 C 376.046875 490.207031 374.199219 486.472656 372.867188 482.484375 C 371.429688 478.289062 370.199219 474.042969 369.179688 469.75 C 362.21875 440.714844 356.234375 415.503906 351.21875 394.121094 C 346.203125 372.738281 342.0625 354.839844 338.796875 340.417969 C 335.515625 326 333.058594 314.914062 331.425781 307.15625 C 329.789062 299.402344 328.972656 294.578125 328.964844 292.6875 C 328.964844 290.441406 330.605469 288.753906 333.882812 287.628906 C 337.15625 286.503906 342.683594 285.949219 350.464844 285.957031 C 358.648438 285.957031 365.355469 286.777344 370.582031 288.414062 C 375.808594 290.050781 380.003906 292.347656 383.171875 295.3125 C 386.332031 298.246094 388.6875 301.722656 390.234375 305.75 C 391.835938 309.976562 392.910156 314.335938 393.460938 318.824219 C 394.074219 322.308594 394.6875 326.449219 395.308594 331.25 C 395.925781 336.046875 397 343.359375 398.523438 353.1875 C 400.0625 363.003906 402.160156 376.253906 404.820312 392.925781 C 407.476562 409.597656 411.058594 431.523438 415.566406 458.695312 Z M 415.566406 458.695312 " fill-opacity="1" fill-rule="nonzero"/><g clip-path="url(#cba2f24283)"><path fill="#350105" d="M 391.414062 504.414062 C 385.222656 504.414062 379.90625 503.15625 375.5625 500.675781 C 371.339844 498.25 367.859375 495.027344 365.121094 491.007812 C 362.441406 487.074219 360.351562 482.847656 358.84375 478.335938 C 357.351562 473.996094 356.0625 469.523438 354.992188 465.039062 C 348.117188 436.378906 342.078125 410.925781 337.019531 389.394531 C 332.074219 368.121094 327.878906 350.042969 324.613281 335.636719 C 321.285156 320.976562 318.867188 310.058594 317.226562 302.25 C 314.929688 291.390625 314.632812 288.167969 314.632812 286.566406 C 314.632812 283.675781 315.816406 278.433594 323.695312 275.703125 C 327.660156 274.339844 333.738281 273.683594 342.277344 273.683594 C 351.167969 273.683594 358.351562 274.578125 364.226562 276.421875 C 369.839844 278.042969 374.824219 280.800781 379.175781 284.699219 C 383.03125 288.28125 385.898438 292.527344 387.777344 297.441406 C 389.523438 302.054688 390.710938 306.804688 391.34375 311.695312 C 391.960938 315.210938 392.589844 319.441406 393.207031 324.273438 C 393.824219 329.101562 394.886719 336.339844 396.378906 346.042969 C 397.867188 355.742188 400.007812 369.097656 402.671875 385.757812 C 404.390625 396.566406 406.5 409.578125 409.050781 425.125 C 410.277344 420.902344 411.425781 416.902344 412.5 413.128906 C 415.558594 402.324219 418.644531 391.105469 421.6875 379.761719 C 424.730469 368.421875 428.03125 355.5625 431.476562 341.242188 C 434.925781 326.925781 439.40625 308.890625 444.699219 287.820312 C 446.117188 282.417969 447.816406 279.109375 450.25 277.105469 C 452.824219 274.933594 456.84375 273.9375 463.28125 273.9375 C 465.484375 273.9375 468.789062 274.085938 473.378906 274.410156 C 478.484375 274.789062 483.453125 275.8125 488.289062 277.484375 C 493.453125 279.234375 498.117188 281.875 502.273438 285.402344 C 507.171875 289.59375 509.652344 295.445312 509.652344 302.828125 C 509.652344 308.332031 508.226562 316.242188 505.285156 326.988281 C 502.503906 337.1875 498.945312 348.910156 494.589844 361.832031 C 490.238281 374.757812 485.46875 388.371094 480.242188 402.382812 C 475.019531 416.390625 469.820312 429.710938 464.660156 442.292969 C 459.5 454.878906 454.8125 465.878906 450.613281 475.296875 C 446.308594 484.949219 443.167969 491.53125 441.003906 495.417969 C 438.628906 499.566406 433.6875 504.40625 423.660156 504.40625 Z M 391.414062 504.414062 " fill-opacity="1" fill-rule="nonzero"/></g><path fill="#feffd4" d="M 407.378906 452.558594 C 411.6875 438.238281 415.371094 425.660156 418.4375 414.824219 C 421.503906 403.984375 424.574219 392.839844 427.648438 381.386719 C 430.722656 369.933594 434 357.046875 437.476562 342.722656 C 440.957031 328.402344 445.359375 310.605469 450.683594 289.339844 C 451.710938 285.449219 452.886719 282.941406 454.21875 281.824219 C 455.550781 280.703125 458.570312 280.140625 463.28125 280.128906 C 465.324219 280.128906 468.550781 280.285156 472.953125 280.597656 C 477.523438 280.933594 481.976562 281.851562 486.308594 283.351562 C 490.734375 284.839844 494.726562 287.089844 498.285156 290.109375 C 501.761719 293.070312 503.503906 297.3125 503.507812 302.84375 C 503.507812 307.742188 502.128906 315.257812 499.363281 325.386719 C 496.601562 335.519531 493.066406 347.027344 488.765625 359.910156 C 484.46875 372.796875 479.710938 386.246094 474.496094 400.257812 C 469.28125 414.269531 464.105469 427.515625 458.976562 439.992188 C 453.855469 452.464844 449.195312 463.40625 445 472.816406 C 440.804688 482.222656 437.683594 488.769531 435.640625 492.457031 C 433.378906 496.34375 429.386719 498.285156 423.660156 498.285156 L 391.414062 498.285156 C 386.292969 498.285156 382.046875 497.3125 378.667969 495.371094 C 375.246094 493.398438 372.433594 490.777344 370.226562 487.507812 C 367.859375 484.03125 366.007812 480.296875 364.675781 476.308594 C 363.253906 472.160156 362.03125 467.925781 361.007812 463.605469 C 354.046875 434.566406 348.058594 409.359375 343.042969 387.976562 C 338.03125 366.59375 333.882812 348.695312 330.605469 334.28125 C 327.324219 319.863281 324.867188 308.777344 323.234375 301.019531 C 321.601562 293.265625 320.785156 288.445312 320.777344 286.566406 C 320.777344 284.3125 322.429688 282.625 325.730469 281.507812 C 329.035156 280.386719 334.550781 279.824219 342.277344 279.820312 C 350.46875 279.820312 357.171875 280.640625 362.394531 282.277344 C 367.617188 283.910156 371.8125 286.214844 374.980469 289.179688 C 378.136719 292.113281 380.480469 295.589844 382.011719 299.609375 C 383.617188 303.828125 384.703125 308.171875 385.269531 312.644531 C 385.878906 316.128906 386.492188 320.273438 387.109375 325.070312 C 387.730469 329.871094 388.804688 337.183594 390.335938 347.007812 C 391.875 356.828125 393.972656 370.074219 396.628906 386.75 C 399.289062 403.421875 402.871094 425.359375 407.378906 452.558594 Z M 407.378906 452.558594 " fill-opacity="1" fill-rule="nonzero"/><path fill="#a6ddf0" d="M 395.488281 498.277344 C 391.121094 498.277344 387.5625 497.484375 384.796875 495.902344 C 381.910156 494.25 379.535156 492.050781 377.660156 489.304688 C 375.515625 486.136719 373.839844 482.734375 372.636719 479.105469 C 371.25 475.058594 370.042969 470.90625 369.0625 466.742188 C 362.195312 438.082031 356.171875 412.644531 351.097656 391.136719 C 346.113281 369.894531 341.933594 351.839844 338.667969 337.464844 C 335.402344 323.09375 332.921875 311.886719 331.3125 304.203125 C 329.171875 294.082031 328.933594 291.335938 328.933594 290.628906 C 328.933594 290.628906 329.277344 290.058594 331.082031 289.433594 C 333.03125 288.769531 337.265625 287.96875 346.335938 287.96875 C 354.070312 287.96875 360.429688 288.761719 365.230469 290.234375 C 369.355469 291.40625 373.027344 293.402344 376.25 296.222656 C 378.949219 298.726562 380.960938 301.699219 382.28125 305.140625 C 383.777344 309.050781 384.785156 313.085938 385.304688 317.238281 C 385.929688 320.804688 386.539062 324.921875 387.148438 329.65625 C 387.761719 334.394531 388.855469 341.910156 390.382812 351.703125 C 391.914062 361.5 394.023438 374.773438 396.726562 391.453125 C 399.351562 407.917969 402.871094 429.464844 407.476562 457.285156 C 407.550781 457.742188 407.699219 458.171875 407.921875 458.578125 C 408.144531 458.984375 408.425781 459.339844 408.769531 459.652344 C 409.113281 459.960938 409.496094 460.207031 409.925781 460.386719 C 410.351562 460.566406 410.792969 460.671875 411.257812 460.699219 L 411.515625 460.699219 C 411.960938 460.703125 412.394531 460.640625 412.816406 460.503906 C 413.238281 460.367188 413.628906 460.167969 413.988281 459.90625 C 414.34375 459.640625 414.652344 459.328125 414.90625 458.964844 C 415.164062 458.605469 415.355469 458.210938 415.480469 457.785156 C 419.761719 443.53125 423.488281 430.8125 426.578125 419.984375 C 429.671875 409.160156 432.753906 397.875 435.804688 386.488281 C 438.859375 375.097656 442.148438 362.125 445.660156 347.738281 C 449.171875 333.347656 453.585938 315.425781 458.855469 294.375 C 460.023438 289.933594 461.019531 289.023438 461.0625 288.984375 C 461.0625 288.984375 462.375 288.261719 467.472656 288.261719 C 469.414062 288.261719 472.578125 288.414062 476.867188 288.714844 C 481.085938 289.027344 485.191406 289.878906 489.183594 291.265625 C 493.117188 292.582031 496.667969 294.582031 499.832031 297.257812 C 502.375 299.421875 503.613281 302.574219 503.613281 306.875 C 503.613281 311.402344 502.265625 318.625 499.609375 328.351562 C 496.875 338.367188 493.332031 349.90625 489.082031 362.648438 C 484.832031 375.390625 480.03125 388.964844 474.8125 402.863281 C 469.597656 416.761719 464.507812 429.988281 459.355469 442.460938 C 454.203125 454.933594 449.589844 465.839844 445.429688 475.175781 C 441.265625 484.511719 438.207031 490.910156 436.21875 494.492188 C 435.3125 496.074219 433.410156 498.214844 427.824219 498.214844 Z M 395.488281 498.277344 " fill-opacity="1" fill-rule="nonzero"/></svg>